<?xml version="1.0" encoding="utf-8"?>
<!-- Generator: Adobe Illustrator 22.1.0, SVG Export Plug-In . SVG Version: 6.00 Build 0)  -->
<svg version="1.1" id="Layer_1" xmlns="http://www.w3.org/2000/svg" xmlns:xlink="http://www.w3.org/1999/xlink" x="0px" y="0px"
	 viewBox="0 0 34 34" style="enable-background:new 0 0 34 34;" xml:space="preserve">
<style type="text/css">
	.st0{fill:none;stroke:#9B9B9B;stroke-width:1.5;}
	.st1{fill:none;stroke:#9B9B9B;}
</style>
<g>
	<path class="st0" d="M17,33c8.8,0,16-7.2,16-16c0-8.8-7.2-16-16-16S1,8.2,1,17C1,25.8,8.2,33,17,33z"/>
	<g transform="translate(10 10)">
		<path class="st1" d="M7,0.5L7,0.5c0.3,0,0.5,0.2,0.5,0.5v12c0,0.3-0.2,0.5-0.5,0.5l0,0c-0.3,0-0.5-0.2-0.5-0.5V1
			C6.5,0.7,6.7,0.5,7,0.5z"/>
		<path class="st1" d="M13.5,7L13.5,7c0,0.3-0.2,0.5-0.5,0.5H1C0.7,7.5,0.5,7.3,0.5,7l0,0c0-0.3,0.2-0.5,0.5-0.5h12
			C13.3,6.5,13.5,6.7,13.5,7z"/>
	</g>
</g>
</svg>
